<?xml version="1.0" standalone="no"?>
<!DOCTYPE svg PUBLIC "-//W3C//DTD SVG 20010904//EN"
 "http://www.w3.org/TR/2001/REC-SVG-20010904/DTD/svg10.dtd">
<svg version="1.0" xmlns="http://www.w3.org/2000/svg"
 width="356.000000pt" height="356.000000pt" viewBox="0 0 356.000000 356.000000"
 preserveAspectRatio="xMidYMid meet">

<g transform="translate(0.000000,356.000000) scale(0.100000,-0.100000)"
fill="#000000" stroke="none">
<path d="M1560 3549 c-313 -40 -615 -165 -870 -359 -97 -74 -247 -224 -322
-323 -166 -217 -286 -482 -339 -744 -30 -153 -37 -436 -15 -593 98 -676 561
-1229 1208 -1444 209 -69 293 -81 568 -81 206 0 248 3 340 23 621 135 1109
552 1324 1134 86 231 101 325 101 618 -1 216 -3 257 -23 350 -77 355 -242 660
-494 912 -283 283 -644 457 -1048 508 -97 12 -335 11 -430 -1z m368 -250 c264
-29 481 -105 689 -242 353 -233 593 -594 670 -1007 27 -146 24 -431 -6 -570
-45 -212 -134 -417 -254 -587 -80 -113 -248 -281 -360 -360 -173 -122 -375
-209 -587 -254 -153 -33 -449 -33 -599 -1 -479 104 -860 400 -1079 838 -45 90
-108 285 -126 394 -85 499 65 979 417 1339 129 132 250 219 417 301 259 128
542 180 818 149z"/>
<path d="M1150 2450 l0 -40 684 0 c376 0 691 -3 700 -6 14 -5 16 -52 16 -425
l0 -419 45 0 45 0 0 465 0 465 -745 0 -745 0 0 -40z"/>
<path d="M1040 2325 l0 -45 695 0 695 0 0 -419 c0 -231 3 -422 8 -424 4 -3 22
-2 40 0 l32 5 0 464 0 464 -735 0 -735 0 0 -45z"/>
<path d="M910 1686 c0 -520 1 -555 18 -560 72 -21 217 -39 332 -40 163 -1 228
12 444 91 250 92 390 125 589 139 l97 7 0 458 0 459 -740 0 -740 0 0 -554z"/>
</g>
</svg>
