<?xml version="1.0" standalone="no"?>
<!DOCTYPE svg PUBLIC "-//W3C//DTD SVG 20010904//EN"
 "http://www.w3.org/TR/2001/REC-SVG-20010904/DTD/svg10.dtd">
<svg version="1.0" xmlns="http://www.w3.org/2000/svg"
 width="356.000000pt" height="356.000000pt" viewBox="0 0 356.000000 356.000000"
 preserveAspectRatio="xMidYMid meet">

<g transform="translate(0.000000,356.000000) scale(0.100000,-0.100000)"
fill="#000000" stroke="none">
<path d="M1560 3549 c-313 -40 -615 -165 -870 -359 -97 -74 -247 -224 -322
-323 -166 -217 -286 -482 -339 -744 -30 -153 -37 -436 -15 -593 98 -676 561
-1229 1208 -1444 209 -69 293 -81 568 -81 206 0 248 3 340 23 621 135 1109
552 1324 1134 86 231 101 325 101 618 -1 216 -3 257 -23 350 -77 355 -242 660
-494 912 -283 283 -644 457 -1048 508 -97 12 -335 11 -430 -1z m368 -250 c264
-29 481 -105 689 -242 353 -233 593 -594 670 -1007 27 -146 24 -431 -6 -570
-45 -212 -134 -417 -254 -587 -80 -113 -248 -281 -360 -360 -173 -122 -375
-209 -587 -254 -153 -33 -449 -33 -599 -1 -479 104 -860 400 -1079 838 -45 90
-108 285 -126 394 -85 499 65 979 417 1339 129 132 250 219 417 301 259 128
542 180 818 149z"/>
<path d="M1345 2459 c-49 -4 -106 -11 -125 -15 l-35 -7 40 -8 c181 -35 840
-37 1095 -3 229 30 -663 61 -975 33z"/>
<path d="M1150 2237 l0 -165 63 -11 c229 -41 924 -38 1165 4 l32 6 0 166 c0
141 -2 164 -15 159 -60 -23 -220 -31 -615 -31 -395 0 -555 8 -615 31 -13 5
-15 -17 -15 -159z"/>
<path d="M1252 1980 c-29 -4 -55 -10 -58 -13 -7 -7 88 -18 246 -27 269 -17
690 -9 880 16 49 6 52 8 29 18 -29 13 -1016 18 -1097 6z"/>
<path d="M1150 1767 l0 -165 63 -11 c229 -41 924 -38 1165 4 l32 6 0 166 c0
141 -2 164 -15 159 -60 -23 -220 -31 -615 -31 -395 0 -555 8 -615 31 -13 5
-15 -17 -15 -159z"/>
<path d="M1345 1509 c-49 -4 -106 -11 -125 -15 l-35 -7 40 -8 c181 -35 840
-37 1095 -3 229 30 -663 61 -975 33z"/>
<path d="M1150 1287 l0 -165 63 -11 c229 -41 924 -38 1165 4 l32 6 0 166 c0
141 -2 164 -15 159 -60 -23 -220 -31 -615 -31 -395 0 -555 8 -615 31 -13 5
-15 -17 -15 -159z"/>
</g>
</svg>
