<?xml version="1.0" standalone="no"?>
<!DOCTYPE svg PUBLIC "-//W3C//DTD SVG 20010904//EN"
 "http://www.w3.org/TR/2001/REC-SVG-20010904/DTD/svg10.dtd">
<svg version="1.0" xmlns="http://www.w3.org/2000/svg"
 width="356.000000pt" height="356.000000pt" viewBox="0 0 356.000000 356.000000"
 preserveAspectRatio="xMidYMid meet">

<g transform="translate(0.000000,356.000000) scale(0.100000,-0.100000)"
fill="#000000" stroke="none">
<path d="M1560 3549 c-313 -40 -615 -165 -870 -359 -97 -74 -247 -224 -322
-323 -166 -217 -286 -482 -339 -744 -30 -153 -37 -436 -15 -593 98 -676 561
-1229 1208 -1444 209 -69 293 -81 568 -81 206 0 248 3 340 23 621 135 1109
552 1324 1134 86 231 101 325 101 618 -1 216 -3 257 -23 350 -77 355 -242 660
-494 912 -283 283 -644 457 -1048 508 -97 12 -335 11 -430 -1z m368 -250 c264
-29 481 -105 689 -242 353 -233 593 -594 670 -1007 27 -146 24 -431 -6 -570
-45 -212 -134 -417 -254 -587 -80 -113 -248 -281 -360 -360 -173 -122 -375
-209 -587 -254 -153 -33 -449 -33 -599 -1 -479 104 -860 400 -1079 838 -45 90
-108 285 -126 394 -85 499 65 979 417 1339 129 132 250 219 417 301 259 128
542 180 818 149z"/>
<path d="M2297 2510 c-65 -37 -120 -70 -123 -73 -3 -3 10 -16 30 -29 l36 -25
-136 -201 c-75 -111 -140 -202 -145 -202 -5 0 -114 59 -242 130 -129 72 -239
130 -246 130 -11 0 -527 -273 -540 -285 -7 -8 30 -75 41 -75 4 0 99 49 211
109 111 60 222 119 247 131 l45 21 245 -136 c139 -77 253 -135 265 -133 14 2
66 71 167 222 81 120 151 223 157 229 6 6 20 2 41 -13 17 -12 33 -20 35 -18 6
6 37 256 33 271 -2 11 -36 -4 -121 -53z"/>
<path d="M2310 1600 l0 -620 175 0 175 0 0 620 0 620 -175 0 -175 0 0 -620z"/>
<path d="M1360 1425 l0 -445 180 0 180 0 0 445 0 445 -180 0 -180 0 0 -445z"/>
<path d="M1840 1365 l0 -385 175 0 175 0 0 385 0 385 -175 0 -175 0 0 -385z"/>
<path d="M890 1335 l0 -355 180 0 180 0 0 355 0 355 -180 0 -180 0 0 -355z"/>
</g>
</svg>
