<?xml version="1.0" standalone="no"?>
<!DOCTYPE svg PUBLIC "-//W3C//DTD SVG 20010904//EN"
 "http://www.w3.org/TR/2001/REC-SVG-20010904/DTD/svg10.dtd">
<svg version="1.0" xmlns="http://www.w3.org/2000/svg"
 width="356.000000pt" height="356.000000pt" viewBox="0 0 356.000000 356.000000"
 preserveAspectRatio="xMidYMid meet">

<g transform="translate(0.000000,356.000000) scale(0.100000,-0.100000)"
fill="#000000" stroke="none">
<path d="M1560 3549 c-313 -40 -615 -165 -870 -359 -97 -74 -247 -224 -322
-323 -166 -217 -286 -482 -339 -744 -30 -153 -37 -436 -15 -593 98 -676 561
-1229 1208 -1444 209 -69 293 -81 568 -81 206 0 248 3 340 23 621 135 1109
552 1324 1134 86 231 101 325 101 618 -1 216 -3 257 -23 350 -77 355 -242 660
-494 912 -283 283 -644 457 -1048 508 -97 12 -335 11 -430 -1z m368 -250 c264
-29 481 -105 689 -242 353 -233 593 -594 670 -1007 27 -146 24 -431 -6 -570
-45 -212 -134 -417 -254 -587 -80 -113 -248 -281 -360 -360 -173 -122 -375
-209 -587 -254 -153 -33 -449 -33 -599 -1 -479 104 -860 400 -1079 838 -45 90
-108 285 -126 394 -85 499 65 979 417 1339 129 132 250 219 417 301 259 128
542 180 818 149z"/>
<path d="M975 2641 c-11 -5 -29 -19 -40 -31 -19 -21 -20 -38 -23 -283 -2 -185
0 -269 9 -289 25 -60 -6 -58 863 -58 l795 0 28 24 28 24 3 268 c2 190 0 276
-9 296 -25 60 5 58 -851 57 -431 0 -792 -4 -803 -8z m985 -146 l0 -55 -445 0
-445 0 0 55 0 55 445 0 445 0 0 -55z m552 -93 c38 -37 48 -98 23 -140 -50 -83
-169 -81 -210 4 -19 41 -19 67 0 105 38 73 130 88 187 31z m-552 -142 l0 -60
-445 0 -445 0 0 60 0 60 445 0 445 0 0 -60z"/>
<path d="M1750 1905 c0 -32 2 -35 30 -35 28 0 30 3 30 35 0 32 -2 35 -30 35
-28 0 -30 -3 -30 -35z"/>
<path d="M975 1821 c-11 -5 -29 -19 -40 -31 -19 -21 -20 -38 -23 -283 -2 -185
0 -269 9 -289 25 -60 -6 -58 863 -58 l795 0 28 24 28 24 3 268 c2 190 0 276
-9 296 -25 60 5 58 -851 57 -431 0 -792 -4 -803 -8z m985 -151 l0 -60 -445 0
-445 0 0 60 0 60 445 0 445 0 0 -60z m552 -98 c38 -37 48 -98 23 -140 -50 -83
-169 -81 -210 4 -19 41 -19 67 0 105 38 73 130 88 187 31z m-552 -142 l0 -60
-445 0 -445 0 0 60 0 60 445 0 445 0 0 -60z"/>
<path d="M1750 1025 l0 -95 -384 0 -384 0 -30 30 c-34 34 -59 37 -102 15 -58
-30 -67 -90 -21 -136 40 -39 82 -39 123 1 l30 30 795 0 795 0 28 -30 c56 -60
149 -23 150 58 0 39 -46 92 -80 92 -28 0 -76 -26 -83 -45 -6 -13 -54 -15 -392
-15 l-385 0 0 95 0 95 -30 0 -30 0 0 -95z"/>
</g>
</svg>
