<?xml version="1.0" standalone="no"?>
<!DOCTYPE svg PUBLIC "-//W3C//DTD SVG 20010904//EN"
 "http://www.w3.org/TR/2001/REC-SVG-20010904/DTD/svg10.dtd">
<svg version="1.0" xmlns="http://www.w3.org/2000/svg"
 width="356.000000pt" height="356.000000pt" viewBox="0 0 356.000000 356.000000"
 preserveAspectRatio="xMidYMid meet">

<g transform="translate(0.000000,356.000000) scale(0.100000,-0.100000)"
fill="#000000" stroke="none">
<path d="M1560 3549 c-313 -40 -615 -165 -870 -359 -97 -74 -247 -224 -322
-323 -166 -217 -286 -482 -339 -744 -30 -153 -37 -436 -15 -593 98 -676 561
-1229 1208 -1444 209 -69 293 -81 568 -81 206 0 248 3 340 23 621 135 1109
552 1324 1134 86 231 101 325 101 618 -1 216 -3 257 -23 350 -77 355 -242 660
-494 912 -283 283 -644 457 -1048 508 -97 12 -335 11 -430 -1z m368 -250 c264
-29 481 -105 689 -242 353 -233 593 -594 670 -1007 27 -146 24 -431 -6 -570
-45 -212 -134 -417 -254 -587 -80 -113 -248 -281 -360 -360 -173 -122 -375
-209 -587 -254 -153 -33 -449 -33 -599 -1 -479 104 -860 400 -1079 838 -45 90
-108 285 -126 394 -85 499 65 979 417 1339 129 132 250 219 417 301 259 128
542 180 818 149z"/>
<path d="M1490 2240 c-157 -44 -428 -118 -603 -166 -175 -48 -312 -91 -305
-95 7 -4 132 -39 278 -78 146 -40 273 -74 283 -77 16 -5 17 -28 17 -295 l0
-289 620 0 620 0 0 290 c0 160 2 290 5 290 7 0 589 161 592 163 1 2 -1082 299
-1212 333 -5 1 -138 -33 -295 -76z"/>
<path d="M2631 1738 c-12 -79 -24 -151 -27 -160 -5 -16 2 -18 56 -18 59 0 62
1 57 23 -3 12 -16 84 -28 160 -13 75 -26 137 -29 137 -3 0 -16 -64 -29 -142z"/>
</g>
</svg>
